<?xml version="1.0" encoding="utf-8"?>
<!-- Generator: Adobe Illustrator 23.0.6, SVG Export Plug-In . SVG Version: 6.00 Build 0)  -->
<svg version="1.1" id="Layer_1" xmlns="http://www.w3.org/2000/svg" xmlns:xlink="http://www.w3.org/1999/xlink" x="0px" y="0px"
	 viewBox="0 0 20 20" style="enable-background:new 0 0 20 20;" xml:space="preserve">
<style type="text/css">
	.st0{fill:#FF5972;}
</style>
<path class="st0" d="M6.1,3.3c-0.2,0-0.3,0.1-0.3,0.3v12.8c0,0.2,0.1,0.3,0.3,0.3h7.8c0.2,0,0.3-0.1,0.3-0.3V3.6
	c0-0.2-0.1-0.3-0.3-0.3C13.9,3.3,6.1,3.3,6.1,3.3z M7.5,4.9h5.1v8.4H7.5V4.9z M10,14.2c0.5,0,0.8,0.4,0.8,0.8c0,0.5-0.4,0.8-0.8,0.8
	c-0.5,0-0.8-0.4-0.8-0.8C9.1,14.6,9.5,14.2,10,14.2z"/>
</svg>
